<svg xmlns="http://www.w3.org/2000/svg" width="640" height="360" viewBox="0 0 640 360"><rect width="640" height="360" rx="18" fill="#ffffff"/><rect x="0" y="0" width="640" height="72" rx="18" fill="#5f178f"/><rect x="0" y="54" width="640" height="18" fill="#5f178f"/><text x="320" y="50" text-anchor="middle" font-family="Georgia, Times New Roman, serif" font-size="46" font-weight="900" fill="#ffffff">GYAN NEXA Course</text><rect x="0" y="72" width="346" height="204" fill="#fff"/><rect x="346" y="72" width="294" height="204" fill="#123c75"/><circle cx="50" cy="105" r="24" fill="#fff" stroke="#d8d8d8" stroke-width="3"/><text x="50" y="113" text-anchor="middle" font-family="Times New Roman, Times, serif" font-size="14" font-weight="900" fill="#d10000">GR</text><text x="86" y="111" font-family="Times New Roman, Times, serif" font-size="34" font-weight="900" fill="#073f76">Canva Course Advance</text><rect x="12" y="132" width="312" height="42" rx="4" fill="#5f178f"/><text x="168" y="160" text-anchor="middle" font-family="Times New Roman, Times, serif" font-size="21" font-weight="900" fill="#fff">Skill Development</text><rect x="16" y="188" width="98" height="38" rx="4" fill="#111827" transform="rotate(-8 65 207)"/><text x="65" y="204" text-anchor="middle" font-family="Times New Roman, Times, serif" font-size="12" font-weight="900" fill="#ffeb3b" transform="rotate(-8 65 207)">LIMITED</text><text x="65" y="218" text-anchor="middle" font-family="Times New Roman, Times, serif" font-size="12" font-weight="900" fill="#ffeb3b" transform="rotate(-8 65 207)">OFFER</text><text x="186" y="208" text-anchor="middle" font-family="Times New Roman, Times, serif" font-size="24" font-weight="900" fill="#c00000">100% Success</text><text x="186" y="238" text-anchor="middle" font-family="Times New Roman, Times, serif" font-size="23" font-weight="900" fill="#111827">JOIN NOW</text><rect x="24" y="248" width="224" height="42" rx="8" fill="#1526bd"/><text x="136" y="276" text-anchor="middle" font-family="Times New Roman, Times, serif" font-size="20" font-weight="900" fill="#ffeb3b">TARGET S GRADE</text><rect x="0" y="306" width="330" height="42" fill="#e20f8f"/><text x="165" y="334" text-anchor="middle" font-family="Times New Roman, Times, serif" font-size="23" font-weight="900" fill="#fff">Validity: 6 Months</text><g font-family="Times New Roman, Times, serif" font-size="16" font-weight="800" fill="#ffffff"><circle cx="368" cy="96" r="9" fill="#ffd400"/><text x="384" y="102">Theory Classes with PDF Notes</text><circle cx="368" cy="124" r="9" fill="#ffd400"/><text x="384" y="130">2500+ MCQ Classes with Notes</text><circle cx="368" cy="152" r="9" fill="#ffd400"/><text x="384" y="158">Concept Oriented Lectures</text><circle cx="368" cy="180" r="9" fill="#ffd400"/><text x="384" y="186">Recorded + Live Classes</text><circle cx="368" cy="208" r="9" fill="#ffd400"/><text x="384" y="214">Practical Classes with PDF Notes</text><circle cx="368" cy="236" r="9" fill="#ffd400"/><text x="384" y="242">Original Solved Old Paper</text><circle cx="368" cy="264" r="9" fill="#ffd400"/><text x="384" y="270">Bilingual Content</text></g><rect x="346" y="306" width="294" height="42" fill="#000000"/><text x="493" y="333" text-anchor="middle" font-family="Times New Roman, Times, serif" font-size="18" font-weight="900" fill="#fff">All</text></svg>